HIERARCHY
ROOT Hips
{
 OFFSET 0.000000 0.000000 0.000000
 CHANNELS 6 Xposition Yposition Zposition Yrotation Xrotation Zrotation
 JOINT Chest
 {
  OFFSET 0.000000 9.588913 -0.003946
  CHANNELS 3 Yrotation Xrotation Zrotation
  JOINT Chest2
  {
   OFFSET 0.000000 9.541882 0.008053
   CHANNELS 3 Yrotation Xrotation Zrotation
   JOINT Chest3
   {
    OFFSET 0.000000 9.501360 0.000000
    CHANNELS 3 Yrotation Xrotation Zrotation
    JOINT Chest4
    {
     OFFSET 0.000000 9.491660 0.000000
     CHANNELS 3 Yrotation Xrotation Zrotation
     JOINT Neck
     {
      OFFSET 0.000000 14.331917 0.000000
      CHANNELS 3 Yrotation Xrotation Zrotation
      JOINT Head
      {
       OFFSET 0.000000 8.884799 0.017034
       CHANNELS 3 Yrotation Xrotation Zrotation
       End Site
       {
        OFFSET 0.000000 16.896195 0.008993
       }
      }
     }
     JOINT RightCollar
     {
      OFFSET -2.923010 9.499495 0.000000
      CHANNELS 3 Yrotation Xrotation Zrotation
      JOINT RightShoulder
      {
       OFFSET -13.795216 0.000000 0.000000
       CHANNELS 3 Yrotation Xrotation Zrotation
       JOINT RightElbow
       {
        OFFSET -30.272209 0.000000 0.000000
        CHANNELS 3 Yrotation Xrotation Zrotation
        JOINT RightWrist
        {
         OFFSET -24.478199 0.000000 0.000000
         CHANNELS 3 Yrotation Xrotation Zrotation
         End Site
         {
          OFFSET -18.090752 0.000000 0.000000
         }
        }
       }
      }
     }
     JOINT LeftCollar
     {
      OFFSET 2.923010 9.499495 0.000000
      CHANNELS 3 Yrotation Xrotation Zrotation
      JOINT LeftShoulder
      {
       OFFSET 13.795216 0.000000 0.000000
       CHANNELS 3 Yrotation Xrotation Zrotation
       JOINT LeftElbow
       {
        OFFSET 30.272209 0.000000 0.000000
        CHANNELS 3 Yrotation Xrotation Zrotation
        JOINT LeftWrist
        {
         OFFSET 24.478199 0.000000 0.000000
         CHANNELS 3 Yrotation Xrotation Zrotation
         End Site
         {
          OFFSET 18.090752 0.000000 0.000000
         }
        }
       }
      }
     }
    }
   }
  }
 }
 JOINT RightHip
 {
  OFFSET -7.826875 0.019532 0.001973
  CHANNELS 3 Yrotation Xrotation Zrotation
  JOINT RightKnee
  {
   OFFSET 0.000000 -40.546152 -0.001885
   CHANNELS 3 Yrotation Xrotation Zrotation
   JOINT RightAnkle
   {
    OFFSET 0.000000 -39.417092 -0.003189
    CHANNELS 3 Yrotation Xrotation Zrotation
    JOINT RightToe
    {
     OFFSET 0.000000 -7.579396 17.243563
     CHANNELS 3 Yrotation Xrotation Zrotation
     End Site
     {
      OFFSET 0.000000 -1.500329 6.694466
     }
    }
   }
  }
 }
 JOINT LeftHip
 {
  OFFSET 7.826875 0.019532 0.001973
  CHANNELS 3 Yrotation Xrotation Zrotation
  JOINT LeftKnee
  {
   OFFSET 0.000000 -40.546152 -0.001885
   CHANNELS 3 Yrotation Xrotation Zrotation
   JOINT LeftAnkle
   {
    OFFSET 0.000000 -39.417092 -0.003189
    CHANNELS 3 Yrotation Xrotation Zrotation
    JOINT LeftToe
    {
     OFFSET 0.000000 -7.579396 17.243563
     CHANNELS 3 Yrotation Xrotation Zrotation
     End Site
     {
      OFFSET 0.000000 -1.500329 6.694466
     }
    }
   }
  }
 }
}
MOTION
Frames: 14
Frame Time: 0.008333
0.000000 87.345680 0.000000 0.000000 -5.767889 0.000000 0.000000 11.653876 0.000000 0.000000 -5.885988 0.000000 0.000000 -0.000000 0.000000 0.000000 -0.000000 0.000000 0.000000 12.528808 0.000000 0.000000 0.711711 0.000000 0.000000 -0.000000 0.000000 0.000000 -0.000000 0.000000 2.309063 -0.000000 0.000000 -2.309063 -0.000000 -0.000000 0.000000 -0.000000 0.000000 0.000000 0.000000 0.000000 -2.309063 0.000000 0.000000 2.309063 -0.000000 0.000000 0.000000 8.520374 0.000000 0.000000 1.905768 0.000000 -0.000000 -4.658254 0.000000 0.000000 -0.000000 0.000000 0.000000 8.520374 0.000000 0.000000 1.905768 0.000000 -0.000000 -4.658254 0.000000 0.000000 -0.000000 0.000000
17.949395 89.000942 4.565594 52.409579 -6.351443 -2.725680 -0.255223 1.867340 0.924673 -0.205238 1.068436 0.844779 -0.254095 1.336008 1.055421 -0.205238 1.068436 0.844779 -0.597664 25.041463 -0.197460 -0.603594 1.424713 -0.077943 -2.656811 0.245834 -0.609959 -3.554923 0.328626 87.029188 8.162252 8.940416 3.191720 0.306837 -2.844618 -0.229063 -4.433204 0.507522 0.929312 3.493096 -3.646115 -89.412854 1.625399 3.753058 0.903923 -0.124431 0.440997 1.897374 -0.900334 6.870942 4.162570 4.738123 11.901554 -0.878912 3.082022 -12.266705 -8.712775 -0.083379 -0.638267 -0.039240 3.003068 9.442452 2.423816 -6.611957 1.988729 0.087182 -2.739957 -13.686887 -12.589031 0.191090 0.731960 0.083617
17.951751 89.001345 4.565512 52.393677 -6.353995 -2.730085 -0.255885 1.873056 0.923182 -0.205496 1.072025 0.844394 -0.254410 1.340495 1.054937 -0.205496 1.072025 0.844394 -0.591667 25.041133 -0.196087 -0.597396 1.424262 -0.077820 -2.663144 0.243560 -0.611958 -3.561358 0.326569 87.032436 8.161185 8.931407 3.188829 0.311717 -2.841668 -0.236689 -4.432921 0.499401 0.925224 3.491015 -3.642290 -89.414296 1.632979 3.753726 0.912057 -0.122657 0.439319 1.897957 -0.886568 6.863943 4.165443 4.735131 11.916037 -0.876871 3.085186 -12.268043 -8.710042 -0.083970 -0.641265 -0.040210 3.009758 9.448704 2.427060 -6.601875 1.988894 0.088483 -2.739895 -13.694673 -12.589821 0.189916 0.728050 0.084448
17.954646 89.001791 4.564928 52.378872 -6.354640 -2.733761 -0.257008 1.877628 0.920858 -0.206092 1.075005 0.843636 -0.255150 1.344220 1.053987 -0.206092 1.075005 0.843636 -0.585508 25.041003 -0.194287 -0.591120 1.424058 -0.077272 -2.668271 0.240309 -0.613575 -3.570995 0.326557 87.037372 8.158199 8.924799 3.185808 0.314343 -2.842056 -0.247121 -4.436912 0.491922 0.921497 3.488362 -3.638632 -89.410109 1.638994 3.754898 0.916329 -0.123860 0.438299 1.897131 -0.874660 6.855065 4.167080 4.734477 11.930852 -0.875592 3.087141 -12.269993 -8.705520 -0.084642 -0.644087 -0.041427 3.017381 9.451727 2.429121 -6.596435 1.992064 0.089324 -2.737656 -13.703570 -12.590529 0.188942 0.724063 0.085724
17.958172 89.002266 4.563890 52.367621 -6.353895 -2.736965 -0.259002 1.880713 0.917356 -0.207364 1.077055 0.842344 -0.256740 1.346785 1.052367 -0.207364 1.077055 0.842344 -0.579622 25.042888 -0.191295 -0.585419 1.426343 -0.075369 -2.671864 0.238249 -0.613684 -3.584407 0.328655 87.042123 8.153759 8.921340 3.181007 0.315761 -2.844070 -0.253331 -4.444244 0.487284 0.918776 3.483965 -3.637755 -89.400300 1.643243 3.757996 0.918496 -0.124307 0.437941 1.893392 -0.868205 6.846496 4.168822 4.735272 11.943990 -0.878307 3.089061 -12.272009 -8.698939 -0.085373 -0.646713 -0.041996 3.019779 9.452062 2.429143 -6.596111 1.998296 0.090541 -2.730650 -13.713307 -12.591015 0.188006 0.720063 0.086852
17.962359 89.002764 4.562677 52.355239 -6.353303 -2.740464 -0.260158 1.882462 0.913855 -0.208174 1.078393 0.841017 -0.257753 1.348459 1.050705 -0.208174 1.078393 0.841017 -0.575335 25.047875 -0.187812 -0.581574 1.432468 -0.072572 -2.677931 0.238702 -0.613369 -3.598211 0.332880 87.043467 8.149517 8.921103 3.177006 0.317662 -2.844208 -0.252596 -4.449778 0.485322 0.916769 3.473141 -3.640822 -89.388272 1.649430 3.763038 0.921199 -0.122246 0.438112 1.891110 -0.861971 6.839964 4.172031 4.736285 11.954015 -0.884577 3.091247 -12.273116 -8.691640 -0.086155 -0.649075 -0.041384 3.017476 9.453595 2.428680 -6.597996 2.003603 0.091437 -2.718673 -13.722625 -12.590526 0.187166 0.716179 0.087412
17.967061 89.003231 4.561360 52.339710 -6.352694 -2.744969 -0.259523 1.883318 0.911270 -0.207927 1.079352 0.839852 -0.257446 1.349657 1.049250 -0.207927 1.079352 0.839852 -0.573894 25.055019 -0.184123 -0.580871 1.441277 -0.068903 -2.688416 0.240094 -0.613504 -3.609001 0.337355 87.043102 8.144622 8.923805 3.174045 0.318931 -2.843843 -0.250146 -4.452984 0.483121 0.916060 3.453643 -3.648029 -89.378053 1.663084 3.765778 0.926438 -0.122724 0.438053 1.892641 -0.854523 6.835467 4.175770 4.738379 11.959770 -0.890696 3.094083 -12.272679 -8.684476 -0.086941 -0.650843 -0.040647 3.012466 9.456201 2.427868 -6.599064 2.008188 0.093310 -2.703462 -13.732245 -12.588938 0.186205 0.712667 0.086923
17.972193 89.003593 4.559803 52.324109 -6.351070 -2.750434 -0.258202 1.883561 0.909353 -0.207402 1.079940 0.838823 -0.256792 1.350389 1.047964 -0.207402 1.079940 0.838823 -0.573858 25.063261 -0.181039 -0.581558 1.451452 -0.065573 -2.699457 0.240961 -0.615102 -3.613589 0.342365 87.044620 8.139562 8.924300 3.170438 0.317019 -2.846498 -0.250266 -4.456501 0.479321 0.915999 3.430855 -3.657617 -89.370842 1.681448 3.765888 0.935413 -0.126281 0.438658 1.895666 -0.850350 6.832560 4.178706 4.741097 11.960920 -0.895213 3.098498 -12.270939 -8.677241 -0.087456 -0.651852 -0.040614 3.008747 9.457153 2.426682 -6.600878 2.014585 0.097438 -2.689692 -13.742975 -12.588087 0.185221 0.709544 0.086590
17.977993 89.003811 4.558002 52.309705 -6.349367 -2.755980 -0.256873 1.883556 0.907744 -0.206972 1.080191 0.837942 -0.256256 1.350702 1.046864 -0.206972 1.080191 0.837942 -0.574558 25.072401 -0.179535 -0.582686 1.462742 -0.063790 -2.710805 0.242899 -0.618661 -3.612732 0.348251 87.047760 8.133628 8.922934 3.166417 0.315407 -2.851105 -0.252992 -4.461695 0.475614 0.914169 3.411429 -3.666967 -89.362644 1.697621 3.767201 0.946130 -0.126678 0.438274 1.896163 -0.848827 6.829889 4.180708 4.742905 11.962455 -0.898849 3.103232 -12.269859 -8.670083 -0.087598 -0.652900 -0.040731 3.007755 9.457371 2.425510 -6.604642 2.022465 0.102366 -2.679363 -13.754096 -12.589125 0.184633 0.706539 0.087903
17.984597 89.003885 4.556263 52.294737 -6.349183 -2.762119 -0.254610 1.884097 0.906817 -0.205912 1.080511 0.837526 -0.254931 1.351099 1.046346 -0.205912 1.080511 0.837526 -0.577793 25.082145 -0.178673 -0.586422 1.474797 -0.062125 -2.723449 0.244648 -0.623491 -3.612240 0.354740 87.050264 8.122947 8.925863 3.162067 0.317296 -2.855206 -0.256295 -4.467914 0.473266 0.911269 3.397031 -3.676157 -89.352804 1.709986 3.772140 0.954916 -0.123901 0.435360 1.895408 -0.845474 6.827161 4.183537 4.743833 11.967690 -0.902538 3.106849 -12.269978 -8.663445 -0.087537 -0.654770 -0.040214 3.007654 9.459848 2.425259 -6.606443 2.029824 0.106585 -2.671793 -13.765402 -12.590246 0.184470 0.704139 0.089738
17.991920 89.003781 4.554467 52.278410 -6.349380 -2.768216 -0.251146 1.884593 0.906356 -0.204014 1.080489 0.837280 -0.252560 1.351067 1.046044 -0.204014 1.080489 0.837280 -0.583228 25.092252 -0.177637 -0.592588 1.487320 -0.059770 -2.735799 0.244674 -0.627763 -3.614189 0.362788 87.050099 8.109317 8.932497 3.158170 0.318465 -2.858731 -0.260011 -4.474766 0.472690 0.910772 3.387420 -3.684760 -89.345868 1.719411 3.778363 0.960703 -0.122063 0.432572 1.898299 -0.839535 6.824408 4.186308 4.746054 11.973896 -0.906313 3.109227 -12.270749 -8.656572 -0.087571 -0.656158 -0.039493 3.006887 9.463747 2.425210 -6.604533 2.036216 0.108605 -2.665401 -13.776900 -12.588072 0.184251 0.702620 0.090080
17.999839 89.003457 4.552208 52.261481 -6.347649 -2.772519 -0.247014 1.883795 0.905608 -0.201763 1.079562 0.836605 -0.249750 1.349904 1.045208 -0.201763 1.079562 0.836605 -0.588560 25.102345 -0.176634 -0.598634 1.499826 -0.057475 -2.748036 0.244021 -0.630280 -3.615547 0.373940 87.047560 8.097919 8.937541 3.153746 0.316392 -2.859771 -0.263346 -4.482254 0.472743 0.912038 3.384534 -3.692276 -89.342529 1.727233 3.784430 0.966715 -0.120645 0.428501 1.903417 -0.832729 6.820691 4.186603 4.750355 11.978286 -0.910161 3.110996 -12.272340 -8.647807 -0.087740 -0.655519 -0.039669 3.002075 9.466435 2.423289 -6.598840 2.041945 0.107251 -2.658110 -13.788154 -12.580897 0.183586 0.701675 0.088406
18.008297 89.002976 4.549737 52.244126 -6.344675 -2.776020 -0.242416 1.882414 0.904522 -0.199396 1.078392 0.835732 -0.246796 1.348435 1.044124 -0.199396 1.078392 0.835732 -0.592728 25.111765 -0.175429 -0.603461 1.511495 -0.055225 -2.760933 0.243015 -0.631263 -3.615582 0.387697 87.042960 8.089202 8.942263 3.148543 0.314766 -2.860815 -0.263872 -4.489777 0.469799 0.912778 3.387576 -3.699483 -89.339352 1.734315 3.788460 0.973285 -0.117369 0.424104 1.905478 -0.825538 6.817277 4.185313 4.754895 11.979762 -0.913535 3.112916 -12.273917 -8.637390 -0.087658 -0.653595 -0.040884 2.993908 9.468829 2.420446 -6.589359 2.046577 0.104015 -2.650804 -13.799357 -12.571457 0.182717 0.701397 0.086327
18.017111 89.002439 4.547543 52.225980 -6.341801 -2.781192 -0.238266 1.880948 0.903942 -0.197394 1.077316 0.835256 -0.244297 1.347085 1.043535 -0.197394 1.077316 0.835256 -0.595170 25.120755 -0.174761 -0.606291 1.522620 -0.053951 -2.771658 0.242078 -0.632445 -3.618646 0.402167 87.037332 8.080810 8.951254 3.143556 0.314294 -2.863230 -0.261307 -4.495361 0.464164 0.913037 3.391166 -3.707130 -89.334963 1.741248 3.786730 0.977039 -0.113517 0.419523 1.905159 -0.816333 6.816028 4.185249 4.757565 11.976969 -0.915706 3.114973 -12.273523 -8.626687 -0.087367 -0.651688 -0.042532 2.987894 9.472116 2.420139 -6.580658 2.050154 0.100308 -2.643531 -13.811449 -12.563668 0.181872 0.702197 0.085891
